<svg width="24" height="24" viewBox="0 0 25 24" fill="none" xmlns="http://www.w3.org/2000/svg">
<g clip-path="url(#clip0_1_808)">
<rect x="0.445068" width="24" height="24" rx="12" fill="#F2AA4C"/>
<path d="M11.8597 4.89209C10.7064 4.89209 9.60034 5.38688 8.78485 6.26761C7.96936 7.14833 7.51122 8.34286 7.51122 9.5884C7.51122 10.8339 7.96936 12.0285 8.78485 12.9092C9.60034 13.7899 10.7064 14.2847 11.8597 14.2847C13.0129 14.2847 14.119 13.7899 14.9345 12.9092C15.75 12.0285 16.2081 10.8339 16.2081 9.5884C16.2081 8.34286 15.75 7.14833 14.9345 6.26761C14.119 5.38688 13.0129 4.89209 11.8597 4.89209ZM11.8597 16.2415C8.59398 16.2415 2.07568 18.012 2.07568 21.5248V24.46H21.6436V21.5248C21.6436 18.012 15.1253 16.2415 11.8597 16.2415Z" fill="#9B6723"/>
</g>
<defs>
<clipPath id="clip0_1_808">
<rect x="0.445068" width="24" height="24" rx="12" fill="white"/>
</clipPath>
</defs>
</svg>
